<?xml version="1.0" standalone="no"?>
<!DOCTYPE svg PUBLIC "-//W3C//DTD SVG 20010904//EN"
 "http://www.w3.org/TR/2001/REC-SVG-20010904/DTD/svg10.dtd">
<svg version="1.0" xmlns="http://www.w3.org/2000/svg"
 width="100.000000pt" height="100.000000pt" viewBox="0 0 100.000000 100.000000"
 preserveAspectRatio="xMidYMid meet">
<metadata>
Created by potrace 1.11, written by Peter Selinger 2001-2013
</metadata>
<g transform="translate(0.000000,100.000000) scale(0.100000,-0.100000)"
fill="#000000" stroke="none">
<path d="M52 828 c-9 -12 -12 -90 -10 -338 3 -315 8 -364 33 -308 9 20 19 23
71 26 61 3 62 2 72 -28 l11 -30 275 0 275 0 13 28 c12 25 19 27 75 30 60 3 63
2 69 -23 7 -28 19 -33 28 -9 3 9 6 154 6 323 0 255 -3 310 -15 327 -14 19 -14
19 -15 -2 0 -31 -20 -44 -68 -44 -53 0 -82 14 -82 40 0 19 -8 20 -285 20 -268
0 -285 -1 -285 -18 0 -29 -21 -42 -70 -42 -50 0 -76 14 -82 44 -3 17 -5 17
-16 4z m673 -70 c3 -13 5 -68 3 -123 l-3 -100 -220 0 -220 0 -3 100 c-5 160
-28 145 223 145 214 0 215 0 220 -22z m-517 -20 c7 -7 12 -35 12 -63 0 -28 -5
-56 -12 -63 -7 -7 -35 -12 -63 -12 -28 0 -56 5 -63 12 -13 13 -17 120 -5 131
11 12 118 8 131 -5z m726 -10 c3 -13 6 -42 6 -65 0 -49 -17 -63 -79 -63 -66 0
-71 5 -71 74 0 35 3 66 7 69 3 4 34 7 69 7 56 0 62 -2 68 -22z m-720 -180 c10
-38 7 -103 -6 -116 -12 -12 -95 -16 -122 -6 -12 5 -16 21 -16 68 0 35 3 66 7
69 3 4 34 7 69 7 56 0 62 -2 68 -22z m720 6 c10 -27 6 -110 -6 -122 -12 -12
-95 -16 -122 -6 -12 5 -16 21 -16 68 0 35 3 66 7 69 3 4 34 7 69 7 47 0 63 -4
68 -16z m-206 -208 c2 -71 -1 -113 -9 -122 -9 -11 -51 -14 -203 -14 -105 0
-201 3 -213 6 -22 6 -23 10 -23 125 l0 119 223 -2 222 -3 3 -109z m-514 22 c3
-13 6 -42 6 -65 0 -49 -17 -63 -79 -63 -65 0 -71 6 -71 65 0 82 3 85 75 85 57
0 63 -2 69 -22z m720 0 c9 -35 7 -87 -4 -109 -8 -15 -21 -19 -60 -19 -75 0
-80 4 -80 65 0 82 3 85 75 85 57 0 63 -2 69 -22z"/>
</g>
</svg>
